Eczar-Medium.ufo
<glyph name="quotedbl" format="1">
  <advance width="376"/>
  <unicode hex="0022"/>
  <outline>
    <contour>
      <point x="211" y="462" type="curve"/>
      <point x="288" y="437" type="line"/>
      <point x="352" y="535"/>
      <point x="373" y="660"/>
      <point x="371" y="676" type="curve"/>
      <point x="286" y="694" type="line"/>
      <point x="253" y="665" type="line"/>
      <point x="252" y="628"/>
      <point x="245" y="553"/>
    </contour>
    <contour>
      <point x="22" y="462" type="curve"/>
      <point x="99" y="437" type="line"/>
      <point x="163" y="535"/>
      <point x="184" y="660"/>
      <point x="182" y="676" type="curve"/>
      <point x="97" y="694" type="line"/>
      <point x="64" y="665" type="line"/>
      <point x="63" y="628"/>
      <point x="56" y="553"/>
    </contour>
  </outline>
</glyph>
<glyph name="comma" format="1">
  <advance width="265"/>
  <unicode hex="002C"/>
  <outline>
    <contour>
      <point x="44" y="-102" type="curve"/>
      <point x="78" y="-145" type="line"/>
      <point x="157" y="-104"/>
      <point x="210" y="-29"/>
      <point x="210" y="36" type="curve"/>
      <point x="210" y="83"/>
      <point x="181" y="123"/>
      <point x="130" y="140" type="curve"/>
      <point x="94" y="122"/>
      <point x="67" y="92"/>
      <point x="60" y="49" type="curve"/>
      <point x="112" y="7" type="line"/>
      <point x="110" y="-28"/>
      <point x="86" y="-67"/>
    </contour>
  </outline>
</glyph>
<glyph name="hyphen" format="1">
  <advance width="390"/>
  <unicode hex="002D"/>
  <outline>
    <contour>
      <point x="31" y="303" type="line"/>
      <point x="70" y="240" type="line"/>
      <point x="340" y="240" type="line"/>
      <point x="353" y="267" type="line"/>
      <point x="315" y="331" type="line"/>
      <point x="44" y="331" type="line"/>
    </contour>
  </outline>
</glyph>
<glyph name="zero" format="1">
  <advance width="577"/>
  <unicode hex="0030"/>
  <outline>
    <contour>
      <point x="286" y="-12" type="curve"/>
      <point x="450" y="-12"/>
      <point x="536" y="147"/>
      <point x="536" y="338" type="curve"/>
      <point x="536" y="524"/>
      <point x="450" y="663"/>
      <point x="297" y="663" type="curve"/>
      <point x="128" y="663"/>
      <point x="39" y="493"/>
      <point x="39" y="319" type="curve"/>
      <point x="39" y="154"/>
      <point x="118" y="-12"/>
    </contour>
    <contour>
      <point x="304" y="63" type="curve"/>
      <point x="198" y="63"/>
      <point x="160" y="222"/>
      <point x="160" y="332" type="curve"/>
      <point x="160" y="410"/>
      <point x="181" y="531"/>
      <point x="233" y="582" type="curve"/>
      <point x="248" y="586"/>
      <point x="261" y="587"/>
      <point x="273" y="587" type="curve"/>
      <point x="371" y="587"/>
      <point x="414" y="458"/>
      <point x="414" y="324" type="curve"/>
      <point x="414" y="238"/>
      <point x="396" y="123"/>
      <point x="341" y="70" type="curve"/>
      <point x="328" y="65"/>
      <point x="316" y="63"/>
    </contour>
  </outline>
</glyph>
<glyph name="nine" format="1">
  <advance width="525"/>
  <unicode hex="0039"/>
  <outline>
    <contour>
      <point x="87" y="120" type="line"/>
      <point x="107" y="-9" type="line"/>
      <point x="313" y="-13"/>
      <point x="496" y="138"/>
      <point x="496" y="377" type="curve"/>
      <point x="496" y="546"/>
      <point x="404" y="670"/>
      <point x="254" y="670" type="curve"/>
      <point x="130" y="670"/>
      <point x="29" y="585"/>
      <point x="29" y="455" type="curve"/>
      <point x="29" y="307"/>
      <point x="158" y="194"/>
      <point x="337" y="257" type="curve"/>
      <point x="326" y="323" type="line"/>
      <point x="224" y="295"/>
      <point x="151" y="365"/>
      <point x="151" y="461" type="curve"/>
      <point x="151" y="514"/>
      <point x="172" y="569"/>
      <point x="214" y="593" type="curve"/>
      <point x="331" y="623"/>
      <point x="378" y="501"/>
      <point x="378" y="372" type="curve"/>
      <point x="378" y="266"/>
      <point x="347" y="155"/>
      <point x="257" y="99" type="curve"/>
    </contour>
  </outline>
</glyph>
<glyph name="V" format="1">
  <advance width="695"/>
  <unicode hex="0056"/>
  <outline>
    <contour>
      <point x="55" y="654" type="line"/>
      <point x="286" y="-12" type="line"/>
      <point x="328" y="-12"/>
      <point x="372" y="-8"/>
      <point x="408" y="-1" type="curve"/>
      <point x="369" y="80" type="line"/>
      <point x="347" y="80" type="line"/>
      <point x="334" y="205" type="line"/>
      <point x="184" y="654" type="line"/>
    </contour>
    <contour>
      <point x="-1" y="605" type="line"/>
      <point x="137" y="587" type="line"/>
      <point x="140" y="654" type="line"/>
      <point x="0" y="654" type="line"/>
    </contour>
    <contour>
      <point x="337" y="34" type="line"/>
      <point x="407" y="-1" type="line"/>
      <point x="641" y="654" type="line"/>
      <point x="549" y="654" type="line"/>
    </contour>
    <contour>
      <point x="178" y="654" type="line"/>
      <point x="195" y="581" type="line"/>
      <point x="229" y="593"/>
      <point x="265" y="606"/>
      <point x="294" y="622" type="curve"/>
      <point x="288" y="654" type="line"/>
    </contour>
    <contour>
      <point x="438" y="605" type="line"/>
      <point x="576" y="587" type="line"/>
      <point x="579" y="654" type="line"/>
      <point x="439" y="654" type="line"/>
    </contour>
    <contour>
      <point x="579" y="654" type="line"/>
      <point x="596" y="581" type="line"/>
      <point x="630" y="593"/>
      <point x="666" y="606"/>
      <point x="695" y="622" type="curve"/>
      <point x="689" y="654" type="line"/>
    </contour>
  </outline>
</glyph>
<glyph name="asciicircum" format="1">
  <advance width="525"/>
  <unicode hex="005E"/>
  <outline>
    <contour>
      <point x="32" y="363" type="line"/>
      <point x="93" y="324" type="line"/>
      <point x="260" y="576" type="line"/>
      <point x="267" y="576" type="line"/>
      <point x="443" y="328" type="line"/>
      <point x="501" y="369" type="line"/>
      <point x="298" y="649" type="line"/>
      <point x="225" y="649" type="line"/>
    </contour>
  </outline>
</glyph>
<glyph name="n" format="1">
  <advance width="607"/>
  <unicode hex="006E"/>
  <outline>
    <contour>
      <point x="403" y="292" type="curve"/>
      <point x="403" y="0" type="line"/>
      <point x="520" y="0" type="line"/>
      <point x="520" y="299" type="line" smooth="yes"/>
      <point x="520" y="373"/>
      <point x="517" y="401"/>
      <point x="507" y="419" type="curve"/>
      <point x="485" y="456"/>
      <point x="438" y="483"/>
      <point x="400" y="488" type="curve"/>
      <point x="352" y="480"/>
      <point x="260" y="428"/>
      <point x="169" y="356" type="curve"/>
      <point x="183" y="320" type="line"/>
      <point x="231" y="356"/>
      <point x="296" y="395"/>
      <point x="338" y="395" type="curve"/>
      <point x="375" y="396"/>
      <point x="403" y="367"/>
    </contour>
    <contour>
      <point x="25" y="34" type="curve"/>
      <point x="29" y="0" type="line"/>
      <point x="119" y="0" type="line"/>
      <point x="132" y="72" type="line"/>
      <point x="102" y="65"/>
      <point x="54" y="49"/>
    </contour>
    <contour>
      <point x="170" y="79" type="curve"/>
      <point x="161" y="0" type="line"/>
      <point x="272" y="0" type="line"/>
      <point x="276" y="48" type="line"/>
      <point x="249" y="64"/>
      <point x="207" y="74"/>
    </contour>
    <contour>
      <point x="97" y="447" type="line"/>
      <point x="97" y="0" type="line"/>
      <point x="214" y="0" type="line"/>
      <point x="214" y="447" type="line"/>
      <point x="169" y="489" type="line"/>
    </contour>
    <contour>
      <point x="347" y="34" type="curve"/>
      <point x="351" y="0" type="line"/>
      <point x="441" y="0" type="line"/>
      <point x="454" y="72" type="line"/>
      <point x="424" y="65"/>
      <point x="376" y="49"/>
    </contour>
    <contour>
      <point x="22" y="408" type="line"/>
      <point x="123" y="406" type="line"/>
      <point x="177" y="449" type="line"/>
      <point x="169" y="489" type="line"/>
      <point x="117" y="487"/>
      <point x="58" y="475"/>
      <point x="12" y="456" type="curve"/>
    </contour>
    <contour>
      <point x="477" y="79" type="curve"/>
      <point x="468" y="0" type="line"/>
      <point x="586" y="0" type="line"/>
      <point x="591" y="48" type="line"/>
      <point x="563" y="64"/>
      <point x="514" y="74"/>
    </contour>
    <contour>
      <point x="317" y="0" type="move" name="bottom"/>
    </contour>
    <contour>
      <point x="301" y="468" type="move" name="top"/>
    </contour>
  </outline>
</glyph>
<glyph name="germandbls" format="1">
  <advance width="580"/>
  <unicode hex="00DF"/>
  <outline>
    <contour>
      <point x="389" y="-17" type="curve"/>
      <point x="483" y="-17"/>
      <point x="559" y="36"/>
      <point x="559" y="126" type="curve"/>
      <point x="559" y="261"/>
      <point x="388" y="287"/>
      <point x="365" y="360" type="curve"/>
      <point x="444" y="409"/>
      <point x="477" y="461"/>
      <point x="477" y="517" type="curve"/>
      <point x="477" y="603"/>
      <point x="398" y="686"/>
      <point x="284" y="686" type="curve"/>
      <point x="196" y="686"/>
      <point x="85" y="629"/>
      <point x="85" y="479" type="curve"/>
      <point x="85" y="0" type="line"/>
      <point x="200" y="0" type="line"/>
      <point x="200" y="435" type="line"/>
      <point x="190" y="579" type="line"/>
      <point x="236" y="610"/>
      <point x="305" y="611"/>
      <point x="342" y="599" type="curve"/>
      <point x="410" y="507"/>
      <point x="314" y="410"/>
      <point x="269" y="330" type="curve"/>
      <point x="273" y="229"/>
      <point x="447" y="205"/>
      <point x="447" y="113" type="curve"/>
      <point x="447" y="95"/>
      <point x="440" y="77"/>
      <point x="427" y="59" type="curve"/>
      <point x="374" y="68"/>
      <point x="321" y="98"/>
      <point x="289" y="121" type="curve"/>
      <point x="250" y="17" type="line"/>
      <point x="294" y="-4"/>
      <point x="344" y="-17"/>
    </contour>
    <contour>
      <point x="15" y="34" type="curve"/>
      <point x="19" y="0" type="line"/>
      <point x="109" y="0" type="line"/>
      <point x="122" y="72" type="line"/>
      <point x="92" y="65"/>
      <point x="44" y="49"/>
    </contour>
    <contour>
      <point x="12" y="430" type="curve"/>
      <point x="17" y="379" type="line"/>
      <point x="137" y="381" type="line"/>
      <point x="170" y="438" type="line"/>
      <point x="133" y="474" type="line"/>
      <point x="93" y="466"/>
      <point x="52" y="453"/>
    </contour>
  </outline>
</glyph>
<glyph name="eth" format="1">
  <advance width="506"/>
  <unicode hex="00F0"/>
  <outline>
    <contour>
      <point x="255" y="-25" type="curve"/>
      <point x="384" y="-25"/>
      <point x="485" y="81"/>
      <point x="485" y="260" type="curve"/>
      <point x="485" y="398"/>
      <point x="422" y="600"/>
      <point x="275" y="766" type="curve"/>
      <point x="189" y="719" type="line"/>
      <point x="274" y="614"/>
      <point x="311" y="538"/>
      <point x="348" y="433" type="curve"/>
      <point x="376" y="418" type="line"/>
      <point x="338" y="458"/>
      <point x="300" y="481"/>
      <point x="242" y="481" type="curve"/>
      <point x="117" y="481"/>
      <point x="17" y="378"/>
      <point x="17" y="233" type="curve"/>
      <point x="17" y="83"/>
      <point x="125" y="-25"/>
    </contour>
    <contour>
      <point x="302" y="55" type="curve"/>
      <point x="187" y="44"/>
      <point x="134" y="139"/>
      <point x="134" y="231" type="curve"/>
      <point x="134" y="302"/>
      <point x="164" y="377"/>
      <point x="211" y="408" type="curve"/>
      <point x="282" y="406"/>
      <point x="332" y="374"/>
      <point x="393" y="314" type="curve"/>
      <point x="344" y="410" type="line"/>
      <point x="389" y="279"/>
      <point x="375" y="123"/>
    </contour>
    <contour>
      <point x="153" y="563" type="line"/>
      <point x="202" y="537" type="line"/>
      <point x="465" y="668" type="line"/>
      <point x="428" y="738" type="line"/>
      <point x="142" y="594" type="line"/>
    </contour>
  </outline>
</glyph>
<glyph name="Imacron" format="1">
  <advance width="377"/>
  <unicode hex="012A"/>
  <outline>
    <contour>
      <point x="28" y="775" type="curve"/>
      <point x="34" y="721" type="line"/>
      <point x="302" y="721" type="line"/>
      <point x="349" y="759" type="line"/>
      <point x="344" y="800" type="line"/>
      <point x="141" y="800" type="line"/>
      <point x="110" y="800"/>
      <point x="67" y="795"/>
    </contour>
    <component base="I" xOffset="8"/>
  </outline>
</glyph>
<glyph name="caroncomb" format="1">
  <advance width="0"/>
  <unicode hex="030C"/>
  <outline>
    <contour>
      <point x="-188" y="688" type="line"/>
      <point x="-50" y="541" type="line"/>
      <point x="46" y="543" type="line"/>
      <point x="170" y="705" type="line"/>
      <point x="111" y="754" type="line"/>
      <point x="1" y="616" type="line"/>
      <point x="-116" y="753" type="line"/>
    </contour>
    <contour>
      <point x="0" y="470" type="move" name="_top"/>
    </contour>
  </outline>
</glyph>
<glyph name="tonos" format="1">
  <advance width="340"/>
  <unicode hex="0384"/>
  <outline>
    <contour>
      <point x="102" y="549" type="line"/>
      <point x="145" y="530" type="line"/>
      <point x="256" y="719" type="line"/>
      <point x="255" y="742" type="line"/>
      <point x="233" y="760"/>
      <point x="197" y="776"/>
      <point x="162" y="775" type="curve"/>
    </contour>
    <contour>
      <point x="150" y="470" type="move" name="_top"/>
    </contour>
  </outline>
</glyph>
<glyph name="dieresistonos" format="1">
  <advance width="340"/>
  <unicode hex="0385"/>
  <outline>
    <contour>
      <point x="127" y="544" type="line"/>
      <point x="174" y="530" type="line"/>
      <point x="258" y="727" type="line"/>
      <point x="255" y="750" type="line"/>
      <point x="231" y="767"/>
      <point x="193" y="777"/>
      <point x="158" y="774" type="curve"/>
    </contour>
    <contour>
      <point x="33" y="550" type="curve"/>
      <point x="65" y="565"/>
      <point x="85" y="590"/>
      <point x="95" y="624" type="curve"/>
      <point x="87" y="658"/>
      <point x="57" y="684"/>
      <point x="21" y="698" type="curve"/>
      <point x="-12" y="681"/>
      <point x="-39" y="652"/>
      <point x="-43" y="612" type="curve"/>
      <point x="-28" y="581"/>
      <point x="-4" y="561"/>
    </contour>
    <contour>
      <point x="334" y="550" type="curve"/>
      <point x="366" y="565"/>
      <point x="386" y="590"/>
      <point x="396" y="624" type="curve"/>
      <point x="388" y="658"/>
      <point x="358" y="684"/>
      <point x="322" y="698" type="curve"/>
      <point x="289" y="681"/>
      <point x="262" y="652"/>
      <point x="258" y="612" type="curve"/>
      <point x="273" y="581"/>
      <point x="297" y="561"/>
    </contour>
    <contour>
      <point x="175" y="470" type="move" name="_top"/>
    </contour>
  </outline>
</glyph>
<glyph name="Alpha" format="1">
  <advance width="707"/>
  <unicode hex="0391"/>
  <outline>
    <component base="A"/>
    <contour>
      <point x="333" y="0" type="move" name="bottom"/>
    </contour>
    <contour>
      <point x="109" y="343" type="move" name="left"/>
    </contour>
    <contour>
      <point x="341" y="650" type="move" name="top"/>
    </contour>
  </outline>
</glyph>
<glyph name="Epsilon" format="1">
  <advance width="590"/>
  <unicode hex="0395"/>
  <outline>
    <component base="E"/>
    <contour>
      <point x="-79" y="343" type="move" name="left"/>
    </contour>
  </outline>
</glyph>
<glyph name="Xi" format="1">
  <advance width="643"/>
  <unicode hex="039E"/>
  <outline>
    <contour>
      <point x="59" y="660" type="curve"/>
      <point x="75" y="561" type="line"/>
      <point x="321" y="572" type="line"/>
      <point x="568" y="561" type="line"/>
      <point x="585" y="660" type="line"/>
      <point x="403" y="654"/>
      <point x="247" y="655"/>
    </contour>
    <contour>
      <point x="55" y="0" type="curve"/>
      <point x="156" y="32" type="line"/>
      <point x="111" y="203" type="line"/>
      <point x="43" y="198" type="line"/>
      <point x="41" y="141"/>
      <point x="46" y="51"/>
    </contour>
    <contour>
      <point x="71" y="97" type="line"/>
      <point x="55" y="0" type="line"/>
      <point x="588" y="0" type="line"/>
      <point x="571" y="97" type="line"/>
      <point x="322" y="86" type="line"/>
    </contour>
    <contour>
      <point x="487" y="32" type="line"/>
      <point x="588" y="0" type="line"/>
      <point x="597" y="51"/>
      <point x="602" y="141"/>
      <point x="600" y="198" type="curve"/>
      <point x="532" y="203" type="line"/>
    </contour>
    <contour>
      <point x="154" y="286" type="line"/>
      <point x="492" y="277" type="line"/>
      <point x="492" y="380" type="line"/>
      <point x="154" y="359" type="line"/>
    </contour>
    <contour>
      <point x="72" y="461" type="curve"/>
      <point x="139" y="461" type="line"/>
      <point x="157" y="623" type="line"/>
      <point x="59" y="660" type="line"/>
      <point x="55" y="622"/>
      <point x="59" y="526"/>
    </contour>
    <contour>
      <point x="486" y="623" type="line"/>
      <point x="504" y="461" type="line"/>
      <point x="572" y="461" type="line"/>
      <point x="584" y="526"/>
      <point x="588" y="622"/>
      <point x="585" y="660" type="curve"/>
    </contour>
  </outline>
</glyph>
<glyph name="Omicron" format="1">
  <advance width="664"/>
  <unicode hex="039F"/>
  <outline>
    <component base="O"/>
    <contour>
      <point x="-50" y="343" type="move" name="left"/>
    </contour>
  </outline>
</glyph>
<glyph name="Upsilon" format="1">
  <advance width="641"/>
  <unicode hex="03A5"/>
  <outline>
    <contour>
      <point x="254" y="161" type="curve"/>
      <point x="376" y="175" type="line"/>
      <point x="376" y="356"/>
      <point x="468" y="567"/>
      <point x="551" y="587" type="curve"/>
      <point x="541" y="585" type="line"/>
      <point x="632" y="585" type="line"/>
      <point x="643" y="623" type="line"/>
      <point x="618" y="643"/>
      <point x="577" y="660"/>
      <point x="539" y="660" type="curve"/>
      <point x="441" y="660"/>
      <point x="354" y="522"/>
      <point x="319" y="280" type="curve"/>
      <point x="332" y="279" type="line"/>
      <point x="317" y="439" type="line"/>
      <point x="267" y="590"/>
      <point x="206" y="660"/>
      <point x="123" y="660" type="curve"/>
      <point x="82" y="660"/>
      <point x="36" y="642"/>
      <point x="-1" y="616" type="curve"/>
      <point x="10" y="577" type="line"/>
      <point x="102" y="583" type="line"/>
      <point x="84" y="586" type="line"/>
      <point x="168" y="551"/>
      <point x="254" y="333"/>
    </contour>
    <contour>
      <point x="168" y="32" type="curve"/>
      <point x="174" y="0" type="line"/>
      <point x="268" y="0" type="line"/>
      <point x="267" y="73" type="line"/>
      <point x="232" y="61"/>
      <point x="197" y="48"/>
    </contour>
    <contour>
      <point x="331" y="67" type="line"/>
      <point x="328" y="0" type="line"/>
      <point x="468" y="0" type="line"/>
      <point x="469" y="49" type="line"/>
    </contour>
    <contour>
      <point x="254" y="294" type="line"/>
      <point x="254" y="0" type="line"/>
      <point x="376" y="0" type="line"/>
      <point x="376" y="294" type="line"/>
    </contour>
    <contour>
      <point x="312" y="334" type="line"/>
      <point x="310" y="264" type="line"/>
      <point x="346" y="264" type="line"/>
      <point x="346" y="334" type="line"/>
    </contour>
    <contour>
      <point x="-103" y="343" type="move" name="left"/>
    </contour>
    <contour>
      <point x="327" y="650" type="move" name="top"/>
    </contour>
  </outline>
</glyph>
<glyph name="Psi" format="1">
  <advance width="847"/>
  <unicode hex="03A8"/>
  <outline>
    <contour>
      <point x="396" y="205" type="curve"/>
      <point x="455" y="205" type="line"/>
      <point x="609" y="214"/>
      <point x="698" y="284"/>
      <point x="726" y="422" type="curve"/>
      <point x="762" y="596" type="line"/>
      <point x="719" y="582" type="line"/>
      <point x="843" y="582" type="line"/>
      <point x="850" y="620" type="line"/>
      <point x="816" y="645"/>
      <point x="776" y="660"/>
      <point x="737" y="660" type="curve"/>
      <point x="685" y="660"/>
      <point x="650" y="625"/>
      <point x="639" y="561" type="curve"/>
      <point x="619" y="448" type="line" smooth="yes"/>
      <point x="607" y="381"/>
      <point x="581" y="313"/>
      <point x="562" y="294" type="curve"/>
      <point x="534" y="276"/>
      <point x="503" y="270"/>
      <point x="467" y="267" type="curve"/>
      <point x="400" y="267" type="line"/>
      <point x="307" y="275"/>
      <point x="257" y="318"/>
      <point x="236" y="448" type="curve"/>
      <point x="217" y="561" type="line" smooth="yes"/>
      <point x="207" y="626"/>
      <point x="171" y="660"/>
      <point x="115" y="660" type="curve"/>
      <point x="77" y="660"/>
      <point x="37" y="645"/>
      <point x="3" y="620" type="curve"/>
      <point x="10" y="582" type="line"/>
      <point x="133" y="582" type="line"/>
      <point x="91" y="596" type="line"/>
      <point x="126" y="420" type="line" smooth="yes"/>
      <point x="155" y="282"/>
      <point x="241" y="213"/>
    </contour>
    <contour>
      <point x="279" y="32" type="curve"/>
      <point x="285" y="0" type="line"/>
      <point x="379" y="0" type="line"/>
      <point x="378" y="73" type="line"/>
      <point x="333" y="57"/>
      <point x="306" y="46"/>
    </contour>
    <contour>
      <point x="444" y="67" type="line"/>
      <point x="441" y="0" type="line"/>
      <point x="581" y="0" type="line"/>
      <point x="582" y="49" type="line"/>
    </contour>
    <contour>
      <point x="365" y="654" type="line"/>
      <point x="365" y="0" type="line"/>
      <point x="487" y="0" type="line"/>
      <point x="487" y="654" type="line"/>
    </contour>
    <contour>
      <point x="288" y="605" type="line"/>
      <point x="426" y="587" type="line"/>
      <point x="429" y="654" type="line"/>
      <point x="289" y="654" type="line"/>
    </contour>
    <contour>
      <point x="472" y="654" type="line"/>
      <point x="473" y="581" type="line"/>
      <point x="508" y="593"/>
      <point x="529" y="603"/>
      <point x="569" y="622" type="curve"/>
      <point x="563" y="654" type="line"/>
    </contour>
  </outline>
</glyph>
<glyph name="beta" format="1">
  <advance width="522"/>
  <unicode hex="03B2"/>
  <outline>
    <contour>
      <point x="43" y="-209" type="line"/>
      <point x="70" y="-225" type="line"/>
      <point x="113" y="-223"/>
      <point x="160" y="-210"/>
      <point x="182" y="-196" type="curve"/>
      <point x="119" y="86" type="line"/>
      <point x="128" y="108" type="line"/>
      <point x="125" y="127"/>
      <point x="122" y="156"/>
      <point x="122" y="195" type="curve"/>
      <point x="122" y="393" type="line" smooth="yes"/>
      <point x="122" y="538"/>
      <point x="182" y="618"/>
      <point x="291" y="618" type="curve"/>
      <point x="323" y="618"/>
      <point x="354" y="612"/>
      <point x="375" y="599" type="curve"/>
      <point x="380" y="586"/>
      <point x="383" y="570"/>
      <point x="383" y="550" type="curve"/>
      <point x="383" y="458"/>
      <point x="316" y="398"/>
      <point x="211" y="391" type="curve"/>
      <point x="276" y="363" type="line"/>
      <point x="388" y="377"/>
      <point x="461" y="448"/>
      <point x="461" y="541" type="curve"/>
      <point x="461" y="653"/>
      <point x="383" y="735"/>
      <point x="273" y="735" type="curve"/>
      <point x="137" y="735"/>
      <point x="54" y="631"/>
      <point x="54" y="461" type="curve"/>
      <point x="54" y="238" type="line" smooth="yes"/>
      <point x="54" y="141"/>
      <point x="53" y="79"/>
      <point x="50" y="-1" type="curve"/>
    </contour>
    <contour>
      <point x="293" y="-20" type="curve"/>
      <point x="406" y="-20"/>
      <point x="494" y="75"/>
      <point x="494" y="197" type="curve"/>
      <point x="494" y="292"/>
      <point x="431" y="363"/>
      <point x="321" y="392" type="curve"/>
      <point x="247" y="326" type="line"/>
      <point x="335" y="317"/>
      <point x="407" y="277"/>
      <point x="424" y="228" type="curve"/>
      <point x="419" y="160"/>
      <point x="361" y="99"/>
      <point x="251" y="98" type="curve"/>
      <point x="192" y="98"/>
      <point x="141" y="111"/>
      <point x="114" y="133" type="curve"/>
      <point x="95" y="103" type="line"/>
      <point x="132" y="33"/>
      <point x="217" y="-20"/>
    </contour>
    <contour>
      <point x="180" y="315" type="curve"/>
      <point x="205" y="298" type="line"/>
      <point x="346" y="336" type="line"/>
      <point x="325" y="407" type="line"/>
      <point x="175" y="417" type="line"/>
      <point x="170" y="387"/>
      <point x="174" y="341"/>
    </contour>
  </outline>
</glyph>
<glyph name="delta" format="1">
  <advance width="483"/>
  <unicode hex="03B4"/>
  <outline>
    <contour>
      <point x="239" y="-20" type="curve"/>
      <point x="365" y="-20"/>
      <point x="458" y="90"/>
      <point x="458" y="237" type="curve"/>
      <point x="458" y="484"/>
      <point x="159" y="497"/>
      <point x="121" y="578" type="curve"/>
      <point x="124" y="611"/>
      <point x="157" y="632"/>
      <point x="206" y="632" type="curve"/>
      <point x="263" y="632"/>
      <point x="323" y="608"/>
      <point x="407" y="552" type="curve"/>
      <point x="432" y="559" type="line"/>
      <point x="444" y="582"/>
      <point x="458" y="631"/>
      <point x="458" y="654" type="curve"/>
      <point x="434" y="675"/>
      <point x="398" y="696"/>
      <point x="354" y="712" type="curve"/>
      <point x="312" y="728"/>
      <point x="275" y="735"/>
      <point x="236" y="735" type="curve"/>
      <point x="139" y="735"/>
      <point x="72" y="677"/>
      <point x="72" y="592" type="curve"/>
      <point x="72" y="511"/>
      <point x="119" y="446"/>
      <point x="214" y="400" type="curve"/>
      <point x="242" y="377" type="line"/>
      <point x="334" y="336"/>
      <point x="372" y="309"/>
      <point x="396" y="270" type="curve"/>
      <point x="390" y="171"/>
      <point x="313" y="98"/>
      <point x="212" y="98" type="curve"/>
      <point x="176" y="98"/>
      <point x="143" y="105"/>
      <point x="119" y="116" type="curve"/>
      <point x="107" y="134"/>
      <point x="100" y="160"/>
      <point x="100" y="191" type="curve"/>
      <point x="100" y="278"/>
      <point x="174" y="347"/>
      <point x="294" y="363" type="curve"/>
      <point x="195" y="417" type="line"/>
      <point x="96" y="407"/>
      <point x="28" y="324"/>
      <point x="28" y="213" type="curve"/>
      <point x="28" y="79"/>
      <point x="118" y="-20"/>
    </contour>
  </outline>
</glyph>
<glyph name="eta" format="1">
  <advance width="533"/>
  <unicode hex="03B7"/>
  <outline>
    <contour>
      <point x="455" y="-224" type="curve"/>
      <point x="486" y="-209" type="line"/>
      <point x="487" y="240" type="line" smooth="yes"/>
      <point x="487" y="409"/>
      <point x="438" y="492"/>
      <point x="339" y="492" type="curve"/>
      <point x="257" y="492"/>
      <point x="193" y="418"/>
      <point x="176" y="306" type="curve"/>
      <point x="179" y="243" type="line"/>
      <point x="194" y="191" type="line"/>
      <point x="215" y="293"/>
      <point x="285" y="376"/>
      <point x="355" y="376" type="curve"/>
      <point x="382" y="376"/>
      <point x="398" y="371"/>
      <point x="408" y="359" type="curve"/>
      <point x="410" y="353"/>
      <point x="412" y="341"/>
      <point x="412" y="318" type="curve"/>
      <point x="412" y="219"/>
      <point x="399" y="98"/>
      <point x="349" y="-197" type="curve"/>
      <point x="380" y="-215"/>
      <point x="416" y="-224"/>
    </contour>
    <contour>
      <point x="91" y="6" type="line"/>
      <point x="98" y="-3" type="line"/>
      <point x="127" y="-8"/>
      <point x="182" y="-7"/>
      <point x="212" y="0" type="curve"/>
      <point x="194" y="243" type="line"/>
      <point x="199" y="339" type="line"/>
      <point x="196" y="388"/>
      <point x="185" y="428"/>
      <point x="168" y="455" type="curve"/>
      <point x="153" y="478"/>
      <point x="133" y="492"/>
      <point x="111" y="492" type="curve"/>
      <point x="73" y="492"/>
      <point x="30" y="455"/>
      <point x="5" y="402" type="curve"/>
      <point x="21" y="368" type="line"/>
      <point x="174" y="379" type="line"/>
      <point x="141" y="417" type="line"/>
    </contour>
    <contour>
      <point x="149" y="0" type="move" name="bottom"/>
    </contour>
    <contour>
      <point x="303" y="470" type="move" name="top"/>
    </contour>
  </outline>
</glyph>
<glyph name="theta" format="1">
  <advance width="514"/>
  <unicode hex="03B8"/>
  <outline>
    <contour>
      <point x="249" y="-20" type="curve"/>
      <point x="392" y="-20"/>
      <point x="482" y="127"/>
      <point x="482" y="359" type="curve"/>
      <point x="482" y="598"/>
      <point x="403" y="735"/>
      <point x="264" y="735" type="curve"/>
      <point x="122" y="735"/>
      <point x="31" y="588"/>
      <point x="31" y="356" type="curve"/>
      <point x="31" y="117"/>
      <point x="110" y="-20"/>
    </contour>
    <contour>
      <point x="222" y="98" type="curve"/>
      <point x="189" y="98"/>
      <point x="156" y="108"/>
      <point x="139" y="121" type="curve"/>
      <point x="117" y="167"/>
      <point x="105" y="228"/>
      <point x="105" y="306" type="curve"/>
      <point x="105" y="511"/>
      <point x="169" y="617"/>
      <point x="291" y="617" type="curve"/>
      <point x="325" y="617"/>
      <point x="358" y="607"/>
      <point x="375" y="594" type="curve"/>
      <point x="397" y="548"/>
      <point x="408" y="487"/>
      <point x="408" y="409" type="curve"/>
      <point x="408" y="204"/>
      <point x="345" y="98"/>
    </contour>
    <contour>
      <point x="83" y="327" type="line"/>
      <point x="432" y="312" type="line"/>
      <point x="435" y="412" type="line"/>
      <point x="86" y="383" type="line"/>
    </contour>
  </outline>
</glyph>
<glyph name="iota" format="1">
  <advance width="278"/>
  <unicode hex="03B9"/>
  <outline>
    <contour>
      <point x="161" y="-14" type="curve"/>
      <point x="210" y="-14"/>
      <point x="260" y="27"/>
      <point x="279" y="81" type="curve"/>
      <point x="264" y="114" type="line"/>
      <point x="94" y="96" type="line"/>
      <point x="124" y="68" type="line"/>
      <point x="203" y="468" type="line"/>
      <point x="176" y="488" type="line"/>
      <point x="128" y="487"/>
      <point x="84" y="477"/>
      <point x="54" y="462" type="curve"/>
      <point x="61" y="175" type="line" smooth="yes"/>
      <point x="64" y="52"/>
      <point x="102" y="-14"/>
    </contour>
    <contour>
      <point x="147" y="470" type="move" name="top"/>
    </contour>
  </outline>
</glyph>
<glyph name="phi" format="1">
  <advance width="652"/>
  <unicode hex="03C6"/>
  <outline>
    <contour>
      <point x="252" y="-209" type="line"/>
      <point x="281" y="-225" type="line"/>
      <point x="322" y="-224"/>
      <point x="369" y="-213"/>
      <point x="393" y="-201" type="curve"/>
      <point x="352" y="-7" type="line"/>
      <point x="353" y="40" type="line"/>
      <point x="353" y="180" type="line" smooth="yes"/>
      <point x="353" y="310"/>
      <point x="388" y="368"/>
      <point x="465" y="368" type="curve"/>
      <point x="496" y="368"/>
      <point x="522" y="361"/>
      <point x="537" y="347" type="curve"/>
      <point x="547" y="331"/>
      <point x="552" y="304"/>
      <point x="552" y="270" type="curve"/>
      <point x="552" y="162"/>
      <point x="469" y="97"/>
      <point x="319" y="97" type="curve"/>
      <point x="304" y="97" type="line"/>
      <point x="220" y="97"/>
      <point x="156" y="109"/>
      <point x="114" y="134" type="curve"/>
      <point x="105" y="149"/>
      <point x="101" y="171"/>
      <point x="101" y="203" type="curve"/>
      <point x="101" y="287"/>
      <point x="145" y="339"/>
      <point x="236" y="364" type="curve"/>
      <point x="255" y="387" type="line"/>
      <point x="254" y="428"/>
      <point x="242" y="469"/>
      <point x="225" y="491" type="curve"/>
      <point x="107" y="464"/>
      <point x="28" y="359"/>
      <point x="28" y="229" type="curve"/>
      <point x="28" y="78"/>
      <point x="143" y="-20"/>
      <point x="319" y="-20" type="curve"/>
      <point x="511" y="-20"/>
      <point x="624" y="88"/>
      <point x="624" y="256" type="curve"/>
      <point x="624" y="385"/>
      <point x="540" y="488"/>
      <point x="435" y="488" type="curve"/>
      <point x="338" y="488"/>
      <point x="282" y="403"/>
      <point x="282" y="257" type="curve"/>
      <point x="282" y="43" type="line"/>
      <point x="284" y="-7" type="line"/>
    </contour>
  </outline>
</glyph>
<glyph name="chi" format="1">
  <advance width="535"/>
  <unicode hex="03C7"/>
  <outline>
    <contour>
      <point x="457" y="-227" type="curve"/>
      <point x="493" y="-227"/>
      <point x="532" y="-189"/>
      <point x="549" y="-137" type="curve"/>
      <point x="535" y="-102" type="line"/>
      <point x="390" y="-119" type="line"/>
      <point x="434" y="-143" type="line"/>
      <point x="321" y="156" type="line"/>
      <point x="278" y="174" type="line"/>
      <point x="274" y="274" type="line"/>
      <point x="221" y="418"/>
      <point x="159" y="485"/>
      <point x="80" y="485" type="curve"/>
      <point x="55" y="485"/>
      <point x="24" y="478"/>
      <point x="-4" y="467" type="curve"/>
      <point x="-3" y="435"/>
      <point x="8" y="390"/>
      <point x="24" y="364" type="curve"/>
      <point x="46" y="353" type="line"/>
      <point x="143" y="389" type="line"/>
      <point x="95" y="398" type="line"/>
      <point x="121" y="369"/>
      <point x="131" y="353"/>
      <point x="160" y="299" type="curve"/>
      <point x="200" y="226"/>
      <point x="219" y="185"/>
      <point x="245" y="125" type="curve"/>
      <point x="263" y="90" type="line"/>
      <point x="358" y="-123" type="line" smooth="yes"/>
      <point x="393" y="-202"/>
      <point x="417" y="-227"/>
    </contour>
    <contour>
      <point x="121" y="-229" type="curve"/>
      <point x="149" y="-212" type="line"/>
      <point x="280" y="93" type="line"/>
      <point x="242" y="160" type="line"/>
      <point x="33" y="-164" type="line"/>
      <point x="44" y="-191"/>
      <point x="85" y="-222"/>
    </contour>
    <contour>
      <point x="258" y="177" type="line"/>
      <point x="298" y="168" type="line"/>
      <point x="308" y="194" type="line"/>
      <point x="266" y="205" type="line"/>
    </contour>
    <contour>
      <point x="268" y="170" type="line"/>
      <point x="319" y="125" type="line"/>
      <point x="525" y="424" type="line"/>
      <point x="515" y="446"/>
      <point x="468" y="481"/>
      <point x="434" y="492" type="curve"/>
      <point x="409" y="479" type="line"/>
    </contour>
  </outline>
</glyph>
<glyph name="kaisymbol" format="1">
  <advance width="514"/>
  <unicode hex="03D7"/>
  <outline>
    <contour>
      <point x="151" y="-222" type="curve"/>
      <point x="242" y="-222"/>
      <point x="342" y="-171"/>
      <point x="415" y="-88" type="curve"/>
      <point x="467" y="-29"/>
      <point x="497" y="29"/>
      <point x="507" y="77" type="curve"/>
      <point x="491" y="110" type="line"/>
      <point x="359" y="93" type="line"/>
      <point x="406" y="66" type="line"/>
      <point x="346" y="174"/>
      <point x="328" y="215"/>
      <point x="303" y="286" type="curve"/>
      <point x="227" y="227" type="line"/>
      <point x="341" y="45" type="line" smooth="yes"/>
      <point x="366" y="5"/>
      <point x="389" y="-9"/>
      <point x="421" y="-10" type="curve"/>
      <point x="416" y="22" type="line"/>
      <point x="395" y="-54"/>
      <point x="254" y="-127"/>
      <point x="156" y="-120" type="curve"/>
      <point x="73" y="-93" type="line"/>
      <point x="44" y="-117" type="line"/>
      <point x="44" y="-143"/>
      <point x="54" y="-185"/>
      <point x="64" y="-204" type="curve"/>
      <point x="85" y="-216"/>
      <point x="117" y="-222"/>
    </contour>
    <contour>
      <point x="163" y="-10" type="curve"/>
      <point x="201" y="93"/>
      <point x="248" y="184"/>
      <point x="290" y="231" type="curve"/>
      <point x="338" y="286"/>
      <point x="398" y="332"/>
      <point x="473" y="373" type="curve"/>
      <point x="487" y="401" type="line"/>
      <point x="478" y="437"/>
      <point x="456" y="476"/>
      <point x="438" y="489" type="curve"/>
      <point x="365" y="456"/>
      <point x="300" y="399"/>
      <point x="245" y="323" type="curve"/>
      <point x="201" y="262"/>
      <point x="159" y="173"/>
      <point x="118" y="57" type="curve"/>
      <point x="126" y="53" type="line"/>
      <point x="179" y="467" type="line"/>
      <point x="152" y="486" type="line"/>
      <point x="102" y="485"/>
      <point x="62" y="476"/>
      <point x="38" y="460" type="curve"/>
      <point x="60" y="291" type="line"/>
      <point x="67" y="2" type="line"/>
      <point x="86" y="-9"/>
      <point x="131" y="-15"/>
    </contour>
  </outline>
</glyph>
<glyph name="dvShortA" format="1">
  <advance width="781"/>
  <unicode hex="0904"/>
  <outline>
    <component base="dvA"/>
    <component base="dvMatraShortE" xOffset="775"/>
    <contour>
      <point x="747" y="625" type="move" name="abvmBINDU"/>
    </contour>
  </outline>
</glyph>
<glyph name="dvShortO" format="1">
  <advance width="1057"/>
  <unicode hex="0912"/>
  <outline>
    <component base="dvA"/>
    <component base="dvMatraShortO" xOffset="781"/>
    <contour>
      <point x="1025" y="625" type="move" name="abvmBINDU"/>
    </contour>
    <contour>
      <point x="917" y="465" type="move" name="abvmTOP"/>
    </contour>
  </outline>
</glyph>
<glyph name="dvDdha" format="1">
  <advance width="581"/>
  <unicode hex="0922"/>
  <outline>
    <contour>
      <point x="366" y="-45" type="curve"/>
      <point x="490" y="-45"/>
      <point x="547" y="34"/>
      <point x="547" y="104" type="curve"/>
      <point x="547" y="177"/>
      <point x="484" y="270"/>
      <point x="388" y="270" type="curve"/>
      <point x="321" y="270"/>
      <point x="270" y="223"/>
      <point x="270" y="157" type="curve"/>
      <point x="270" y="132"/>
      <point x="277" y="108"/>
      <point x="292" y="84" type="curve"/>
      <point x="387" y="21" type="line"/>
      <point x="406" y="33" type="line"/>
      <point x="380" y="69"/>
      <point x="368" y="96"/>
      <point x="368" y="126" type="curve"/>
      <point x="368" y="174"/>
      <point x="399" y="198"/>
      <point x="427" y="198" type="curve"/>
      <point x="454" y="198"/>
      <point x="474" y="176"/>
      <point x="474" y="145" type="curve"/>
      <point x="474" y="88"/>
      <point x="407" y="49"/>
      <point x="328" y="49" type="curve"/>
      <point x="282" y="49"/>
      <point x="241" y="62"/>
      <point x="205" y="77" type="curve"/>
      <point x="165" y="112"/>
      <point x="145" y="159"/>
      <point x="145" y="201" type="curve"/>
      <point x="145" y="266"/>
      <point x="192" y="330"/>
      <point x="290" y="330" type="curve"/>
      <point x="468" y="330" type="line"/>
      <point x="400" y="434" type="line"/>
      <point x="270" y="434" type="line" smooth="yes"/>
      <point x="112" y="434"/>
      <point x="43" y="337"/>
      <point x="43" y="242" type="curve"/>
      <point x="43" y="100"/>
      <point x="198" y="-45"/>
    </contour>
    <contour>
      <point x="365" y="344" type="line"/>
      <point x="468" y="330" type="line"/>
      <point x="468" y="497" type="line"/>
      <point x="395" y="555" type="line"/>
      <point x="365" y="571" type="line"/>
    </contour>
    <contour>
      <point x="-39" y="596" type="line"/>
      <point x="0" y="538" type="line"/>
      <point x="607" y="538" type="line"/>
      <point x="620" y="565" type="line"/>
      <point x="581" y="624" type="line"/>
      <point x="-26" y="624" type="line"/>
    </contour>
    <contour>
      <point x="408" y="640" type="move" name="abvmBINDU"/>
    </contour>
    <contour>
      <point x="398" y="640" type="move" name="abvmCANDRABINDU"/>
    </contour>
    <contour>
      <point x="591" y="640" type="move" name="abvmCANDRABINDU2"/>
    </contour>
    <contour>
      <point x="417" y="470" type="move" name="abvmTOP"/>
    </contour>
    <contour>
      <point x="349" y="-37" type="move" name="blwmBOTTOM"/>
    </contour>
  </outline>
</glyph>
<glyph name="dvNukta" format="1">
  <advance width="0"/>
  <unicode hex="093C"/>
  <outline>
    <contour>
      <point x="10" y="-205" type="curve"/>
      <point x="35" y="-189"/>
      <point x="61" y="-156"/>
      <point x="72" y="-127" type="curve"/>
      <point x="56" y="-107"/>
      <point x="23" y="-76"/>
      <point x="-6" y="-65" type="curve"/>
      <point x="-30" y="-80"/>
      <point x="-55" y="-113"/>
      <point x="-70" y="-144" type="curve"/>
      <point x="-53" y="-167"/>
      <point x="-15" y="-196"/>
    </contour>
    <contour>
      <point x="-2" y="-31" type="move" name="_blwmNUKTA"/>
    </contour>
  </outline>
</glyph>
<glyph name="dvMatraE" format="1">
  <advance width="0"/>
  <unicode hex="0947"/>
  <outline>
    <contour>
      <point x="-267" y="737" type="curve"/>
      <point x="-157" y="575" type="line"/>
      <point x="-103" y="605" type="line"/>
      <point x="-227" y="789" type="line" smooth="yes"/>
      <point x="-329" y="942"/>
      <point x="-443" y="952"/>
      <point x="-551" y="874" type="curve"/>
      <point x="-491" y="768" type="line"/>
      <point x="-393" y="832"/>
      <point x="-327" y="827"/>
    </contour>
    <contour>
      <point x="-148" y="470" type="move" name="_abvmTOP"/>
    </contour>
    <contour>
      <point x="-59" y="625" type="move" name="abvmBINDU"/>
    </contour>
  </outline>
</glyph>
<glyph name="dvMatraShortO" format="1">
  <advance width="276"/>
  <unicode hex="094A"/>
  <outline>
    <component base="dvMatraAa"/>
    <component base="dvMatraShortE" xOffset="282"/>
    <contour>
      <point x="256" y="625" type="move" name="abvmBINDU"/>
    </contour>
  </outline>
</glyph>
<glyph name="dvGrave" format="1">
  <advance width="0"/>
  <unicode hex="0953"/>
  <outline>
    <contour>
      <point x="-306" y="855" type="line"/>
      <point x="-144" y="692" type="line"/>
      <point x="-119" y="692" type="line"/>
      <point x="-85" y="732" type="line"/>
      <point x="-246" y="896" type="line"/>
      <point x="-272" y="896" type="line"/>
    </contour>
    <contour>
      <point x="-166" y="470" type="move" name="_abvmTOP"/>
    </contour>
  </outline>
</glyph>
<glyph name="dvAcute" format="1">
  <advance width="0"/>
  <unicode hex="0954"/>
  <outline>
    <contour>
      <point x="-231" y="735" type="line"/>
      <point x="-195" y="695" type="line"/>
      <point x="-169" y="695" type="line"/>
      <point x="-8" y="848" type="line"/>
      <point x="-43" y="893" type="line"/>
      <point x="-69" y="893" type="line"/>
    </contour>
    <contour>
      <point x="-120" y="470" type="move" name="_abvmTOP"/>
    </contour>
  </outline>
</glyph>
<glyph name="dvDanda" format="1">
  <advance width="454"/>
  <unicode hex="0964"/>
  <outline>
    <contour>
      <point x="221" y="8" type="line"/>
      <point x="297" y="-51" type="line"/>
      <point x="328" y="-39" type="line"/>
      <point x="328" y="588" type="line"/>
      <point x="253" y="647" type="line"/>
      <point x="221" y="635" type="line"/>
    </contour>
  </outline>
</glyph>
<glyph name="dvFive" format="1">
  <advance width="539"/>
  <unicode hex="096B"/>
  <outline>
    <contour>
      <point x="250" y="140" type="curve"/>
      <point x="320" y="140"/>
      <point x="388" y="193"/>
      <point x="409" y="271" type="curve"/>
      <point x="335" y="363" type="line"/>
      <point x="327" y="256"/>
      <point x="209" y="197"/>
      <point x="148" y="263" type="curve"/>
      <point x="108" y="348"/>
      <point x="159" y="485"/>
      <point x="208" y="594" type="curve"/>
      <point x="107" y="635" type="line"/>
      <point x="64" y="554"/>
      <point x="32" y="457"/>
      <point x="32" y="383" type="curve"/>
      <point x="32" y="307"/>
      <point x="67" y="240"/>
      <point x="117" y="197" type="curve"/>
      <point x="156" y="162"/>
      <point x="206" y="140"/>
    </contour>
    <contour>
      <point x="337" y="329" type="line"/>
      <point x="434" y="-39" type="line"/>
      <point x="505" y="-21" type="line"/>
      <point x="517" y="4" type="line"/>
      <point x="409" y="316" type="line"/>
    </contour>
    <contour>
      <point x="368" y="281" type="line"/>
      <point x="408" y="280" type="line"/>
      <point x="423" y="312"/>
      <point x="442" y="374"/>
      <point x="440" y="423" type="curve"/>
      <point x="321" y="458" type="line"/>
      <point x="295" y="427" type="line"/>
      <point x="336" y="288" type="line"/>
    </contour>
  </outline>
</glyph>
<glyph name="dvUE" format="1">
  <advance width="781"/>
  <unicode hex="0976"/>
  <outline>
    <component base="dvA"/>
    <component base="dvMatraUE" xOffset="739"/>
    <contour>
      <point x="637" y="640" type="move" name="abvmBINDU"/>
    </contour>
    <contour>
      <point x="621" y="640" type="move" name="abvmCANDRABINDU"/>
    </contour>
  </outline>
</glyph>
<glyph name="dvUUE" format="1">
  <advance width="781"/>
  <unicode hex="0977"/>
  <outline>
    <component base="dvA"/>
    <component base="dvMatraUUE" xOffset="737"/>
    <contour>
      <point x="637" y="640" type="move" name="abvmBINDU"/>
    </contour>
    <contour>
      <point x="621" y="640" type="move" name="abvmCANDRABINDU"/>
    </contour>
  </outline>
</glyph>
<glyph name="iotaadscript" format="1">
  <advance width="265"/>
  <unicode hex="1FBE"/>
  <outline>
    <contour>
      <point x="135" y="-233" type="curve"/>
      <point x="162" y="-233"/>
      <point x="194" y="-208"/>
      <point x="206" y="-179" type="curve"/>
      <point x="197" y="-152" type="line"/>
      <point x="104" y="-169" type="line"/>
      <point x="122" y="-193" type="line"/>
      <point x="169" y="-61" type="line"/>
      <point x="153" y="-46" type="line"/>
      <point x="118" y="-46"/>
      <point x="88" y="-51"/>
      <point x="69" y="-60" type="curve"/>
      <point x="75" y="-144" type="line" smooth="yes"/>
      <point x="80" y="-200"/>
      <point x="101" y="-233"/>
    </contour>
    <contour>
      <point x="115" y="0" type="move" name="_bottom"/>
    </contour>
  </outline>
</glyph>
<glyph name="lenis" format="1">
  <advance width="340"/>
  <unicode hex="1FBF"/>
  <outline>
    <contour>
      <point x="108" y="565" type="curve"/>
      <point x="133" y="530" type="line"/>
      <point x="204" y="564"/>
      <point x="245" y="629"/>
      <point x="245" y="686" type="curve"/>
      <point x="245" y="726"/>
      <point x="219" y="765"/>
      <point x="173" y="775" type="curve"/>
      <point x="137" y="759"/>
      <point x="119" y="731"/>
      <point x="113" y="692" type="curve"/>
      <point x="164" y="653" type="line"/>
      <point x="161" y="620"/>
      <point x="145" y="598"/>
    </contour>
    <contour>
      <point x="193" y="470" type="move" name="_top"/>
    </contour>
  </outline>
</glyph>
<glyph name="grTilde" format="1">
  <advance width="340"/>
  <unicode hex="1FC0"/>
  <outline>
    <contour>
      <point x="261" y="573" type="curve"/>
      <point x="312" y="573"/>
      <point x="339" y="610"/>
      <point x="352" y="691" type="curve"/>
      <point x="316" y="705" type="line"/>
      <point x="289" y="658" type="line"/>
      <point x="244" y="640"/>
      <point x="149" y="716"/>
      <point x="77" y="716" type="curve"/>
      <point x="28" y="716"/>
      <point x="1" y="679"/>
      <point x="-12" y="598" type="curve"/>
      <point x="23" y="584" type="line"/>
      <point x="49" y="627" type="line"/>
      <point x="95" y="650"/>
      <point x="190" y="573"/>
    </contour>
    <contour>
      <point x="182" y="470" type="move" name="_top"/>
    </contour>
  </outline>
</glyph>
<glyph name="lenisacute" format="1">
  <advance width="340"/>
  <unicode hex="1FCE"/>
  <outline>
    <contour>
      <point x="163" y="549" type="line"/>
      <point x="206" y="530" type="line"/>
      <point x="317" y="719" type="line"/>
      <point x="316" y="742" type="line"/>
      <point x="294" y="760"/>
      <point x="258" y="776"/>
      <point x="223" y="775" type="curve"/>
    </contour>
    <contour>
      <point x="14" y="565" type="curve"/>
      <point x="39" y="530" type="line"/>
      <point x="110" y="564"/>
      <point x="151" y="629"/>
      <point x="151" y="686" type="curve"/>
      <point x="151" y="726"/>
      <point x="125" y="765"/>
      <point x="79" y="775" type="curve"/>
      <point x="43" y="759"/>
      <point x="25" y="731"/>
      <point x="19" y="692" type="curve"/>
      <point x="70" y="653" type="line"/>
      <point x="67" y="620"/>
      <point x="51" y="598"/>
    </contour>
    <contour>
      <point x="177" y="470" type="move" name="_top"/>
    </contour>
  </outline>
</glyph>
<glyph name="lenistilde" format="1">
  <advance width="340"/>
  <unicode hex="1FCF"/>
  <outline>
    <component base="grTilde" xOffset="8" yOffset="208"/>
    <component base="lenis" xOffset="-4"/>
    <contour>
      <point x="206" y="470" type="move" name="_top"/>
    </contour>
  </outline>
</glyph>
<glyph name="aspergrave" format="1">
  <advance width="340"/>
  <unicode hex="1FDD"/>
  <outline>
    <contour>
      <point x="180" y="719" type="line"/>
      <point x="290" y="530" type="line"/>
      <point x="333" y="549" type="line"/>
      <point x="273" y="775" type="line"/>
      <point x="238" y="776"/>
      <point x="202" y="760"/>
      <point x="181" y="742" type="curve"/>
    </contour>
    <contour>
      <point x="127" y="530" type="curve"/>
      <point x="152" y="565" type="line"/>
      <point x="115" y="598"/>
      <point x="98" y="620"/>
      <point x="95" y="653" type="curve"/>
      <point x="147" y="692" type="line"/>
      <point x="141" y="731"/>
      <point x="122" y="759"/>
      <point x="86" y="775" type="curve"/>
      <point x="41" y="765"/>
      <point x="15" y="726"/>
      <point x="15" y="686" type="curve"/>
      <point x="15" y="629"/>
      <point x="56" y="564"/>
    </contour>
    <contour>
      <point x="213" y="470" type="move" name="_top"/>
    </contour>
  </outline>
</glyph>
<glyph name="asperacute" format="1">
  <advance width="340"/>
  <unicode hex="1FDE"/>
  <outline>
    <contour>
      <point x="180" y="549" type="line"/>
      <point x="224" y="530" type="line"/>
      <point x="334" y="719" type="line"/>
      <point x="333" y="742" type="line"/>
      <point x="311" y="760"/>
      <point x="276" y="776"/>
      <point x="241" y="775" type="curve"/>
    </contour>
    <contour>
      <point x="129" y="530" type="curve"/>
      <point x="154" y="565" type="line"/>
      <point x="117" y="598"/>
      <point x="101" y="620"/>
      <point x="97" y="653" type="curve"/>
      <point x="149" y="692" type="line"/>
      <point x="143" y="731"/>
      <point x="125" y="759"/>
      <point x="88" y="775" type="curve"/>
      <point x="43" y="765"/>
      <point x="17" y="726"/>
      <point x="17" y="686" type="curve"/>
      <point x="17" y="629"/>
      <point x="58" y="564"/>
    </contour>
    <contour>
      <point x="207" y="470" type="move" name="_top"/>
    </contour>
  </outline>
</glyph>
<glyph name="dieresisgrave" format="1">
  <advance width="340"/>
  <unicode hex="1FED"/>
  <outline>
    <contour>
      <point x="93" y="727" type="line"/>
      <point x="177" y="530" type="line"/>
      <point x="224" y="544" type="line"/>
      <point x="193" y="774" type="line"/>
      <point x="158" y="777"/>
      <point x="120" y="767"/>
      <point x="96" y="750" type="curve"/>
    </contour>
    <contour>
      <point x="27" y="550" type="curve"/>
      <point x="59" y="565"/>
      <point x="79" y="590"/>
      <point x="89" y="624" type="curve"/>
      <point x="81" y="658"/>
      <point x="50" y="684"/>
      <point x="15" y="698" type="curve"/>
      <point x="-18" y="681"/>
      <point x="-45" y="652"/>
      <point x="-50" y="612" type="curve"/>
      <point x="-35" y="581"/>
      <point x="-10" y="561"/>
    </contour>
    <contour>
      <point x="328" y="550" type="curve"/>
      <point x="360" y="565"/>
      <point x="380" y="590"/>
      <point x="390" y="624" type="curve"/>
      <point x="382" y="658"/>
      <point x="351" y="684"/>
      <point x="316" y="698" type="curve"/>
      <point x="283" y="681"/>
      <point x="256" y="652"/>
      <point x="251" y="612" type="curve"/>
      <point x="266" y="581"/>
      <point x="291" y="561"/>
    </contour>
    <contour>
      <point x="194" y="470" type="move" name="_top"/>
    </contour>
  </outline>
</glyph>
<glyph name="dieresisacute" format="1">
  <advance width="340"/>
  <unicode hex="1FEE"/>
  <outline>
    <component base="dieresistonos" xOffset="-7"/>
    <contour>
      <point x="168" y="470" type="move" name="_top"/>
    </contour>
  </outline>
</glyph>
<glyph name="grGrave" format="1">
  <advance width="340"/>
  <unicode hex="1FEF"/>
  <outline>
    <component base="tonos" xScale="-1" xOffset="331"/>
    <contour>
      <point x="218" y="470" type="move" name="_top"/>
    </contour>
  </outline>
</glyph>
<glyph name="grAcute" format="1">
  <advance width="340"/>
  <unicode hex="1FFD"/>
  <outline>
    <component base="tonos"/>
    <contour>
      <point x="150" y="470" type="move" name="_top"/>
    </contour>
  </outline>
</glyph>
<glyph name="endash" format="1">
  <advance width="546"/>
  <unicode hex="2013"/>
  <outline>
    <contour>
      <point x="31" y="276" type="curve"/>
      <point x="38" y="219" type="line"/>
      <point x="461" y="219" type="line"/>
      <point x="509" y="268" type="line"/>
      <point x="505" y="304" type="line"/>
      <point x="144" y="304" type="line"/>
      <point x="114" y="304"/>
      <point x="70" y="296"/>
    </contour>
  </outline>
</glyph>
<glyph name="emdash" format="1">
  <advance width="978"/>
  <unicode hex="2014"/>
  <outline>
    <contour>
      <point x="31" y="276" type="curve"/>
      <point x="38" y="219" type="line"/>
      <point x="894" y="219" type="line"/>
      <point x="941" y="268" type="line"/>
      <point x="937" y="304" type="line"/>
      <point x="145" y="304" type="line"/>
      <point x="114" y="304"/>
      <point x="70" y="296"/>
    </contour>
  </outline>
</glyph>
<glyph name="Ohm" format="1">
  <advance width="674"/>
  <unicode hex="2126"/>
  <outline>
    <contour>
      <point x="385" y="69" type="curve"/>
      <point x="418" y="15" type="line"/>
      <point x="569" y="79"/>
      <point x="657" y="215"/>
      <point x="657" y="360" type="curve"/>
      <point x="657" y="525"/>
      <point x="533" y="670"/>
      <point x="341" y="670" type="curve"/>
      <point x="142" y="670"/>
      <point x="17" y="514"/>
      <point x="17" y="351" type="curve"/>
      <point x="17" y="203"/>
      <point x="112" y="82"/>
      <point x="276" y="18" type="curve"/>
      <point x="313" y="73" type="line"/>
      <point x="200" y="134"/>
      <point x="146" y="258"/>
      <point x="146" y="369" type="curve"/>
      <point x="146" y="494"/>
      <point x="212" y="602"/>
      <point x="338" y="602" type="curve"/>
      <point x="471" y="602"/>
      <point x="540" y="489"/>
      <point x="540" y="362" type="curve"/>
      <point x="540" y="254"/>
      <point x="491" y="135"/>
    </contour>
    <contour>
      <point x="44" y="32" type="curve"/>
      <point x="50" y="0" type="line"/>
      <point x="313" y="0" type="line"/>
      <point x="313" y="73" type="line"/>
      <point x="210" y="67"/>
      <point x="107" y="55"/>
    </contour>
    <contour>
      <point x="385" y="69" type="line"/>
      <point x="385" y="0" type="line"/>
      <point x="636" y="0" type="line"/>
      <point x="637" y="49" type="line"/>
    </contour>
  </outline>
</glyph>
<glyph name="acutecomb.case" format="1">
  <advance width="0"/>
  <outline>
    <contour>
      <point x="-120" y="755" type="line"/>
      <point x="-81" y="690" type="line"/>
      <point x="3" y="725"/>
      <point x="82" y="757"/>
      <point x="166" y="789" type="curve"/>
      <point x="112" y="886" type="line"/>
    </contour>
    <contour>
      <point x="1" y="650" type="move" name="_top"/>
    </contour>
  </outline>
</glyph>
<glyph name="asper.case" format="1">
  <advance width="340"/>
  <outline>
    <contour>
      <point x="140" y="414" type="curve"/>
      <point x="165" y="450" type="line"/>
      <point x="128" y="482"/>
      <point x="112" y="505"/>
      <point x="109" y="537" type="curve"/>
      <point x="160" y="577" type="line"/>
      <point x="154" y="615"/>
      <point x="136" y="643"/>
      <point x="100" y="660" type="curve"/>
      <point x="54" y="649"/>
      <point x="28" y="611"/>
      <point x="28" y="571" type="curve"/>
      <point x="28" y="513"/>
      <point x="69" y="448"/>
    </contour>
    <contour>
      <point x="117" y="343" type="move" name="_left"/>
    </contour>
  </outline>
</glyph>
<glyph name="aspergrave.case" format="1">
  <advance width="399"/>
  <outline>
    <contour>
      <point x="60" y="603" type="line"/>
      <point x="170" y="414" type="line"/>
      <point x="213" y="434" type="line"/>
      <point x="153" y="659" type="line"/>
      <point x="118" y="661"/>
      <point x="82" y="645"/>
      <point x="61" y="626" type="curve"/>
    </contour>
    <contour>
      <point x="7" y="414" type="curve"/>
      <point x="32" y="450" type="line"/>
      <point x="-5" y="482"/>
      <point x="-22" y="505"/>
      <point x="-25" y="537" type="curve"/>
      <point x="27" y="577" type="line"/>
      <point x="21" y="615"/>
      <point x="2" y="643"/>
      <point x="-34" y="660" type="curve"/>
      <point x="-79" y="649"/>
      <point x="-105" y="611"/>
      <point x="-105" y="571" type="curve"/>
      <point x="-105" y="513"/>
      <point x="-64" y="448"/>
    </contour>
    <contour>
      <point x="156" y="343" type="move" name="_left"/>
    </contour>
  </outline>
</glyph>
<glyph name="dvCChVa" format="1">
  <advance width="1194"/>
  <outline>
    <component base="dvC"/>
    <component base="dvChVa" xOffset="441"/>
    <contour>
      <point x="827" y="640" type="move" name="abvmBINDU"/>
    </contour>
    <contour>
      <point x="851" y="640" type="move" name="abvmCANDRABINDU"/>
    </contour>
    <contour>
      <point x="1169" y="640" type="move" name="abvmCANDRABINDU2"/>
    </contour>
    <contour>
      <point x="988" y="470" type="move" name="abvmTOP"/>
    </contour>
    <contour>
      <point x="864" y="-313" type="move" name="blwmBOTTOM"/>
    </contour>
  </outline>
</glyph>
<glyph name="dvChRYa" format="1">
  <advance width="1292"/>
  <outline>
    <component base="dvChYa"/>
    <component base="dvRakar" xOffset="387" yOffset="6"/>
    <contour>
      <point x="1039" y="640" type="move" name="abvmBINDU"/>
    </contour>
    <contour>
      <point x="1066" y="640" type="move" name="abvmCANDRABINDU"/>
    </contour>
    <contour>
      <point x="1366" y="640" type="move" name="abvmCANDRABINDU2"/>
    </contour>
    <contour>
      <point x="1173" y="470" type="move" name="abvmTOP"/>
    </contour>
    <contour>
      <point x="1109" y="-24" type="move" name="blwmBOTTOM"/>
    </contour>
  </outline>
</glyph>
<glyph name="dvDBhYa" format="1">
  <advance width="1401"/>
  <outline>
    <component base="dvDBha"/>
    <component base="dvYa.post" xOffset="783"/>
    <contour>
      <point x="1122" y="640" type="move" name="abvmBINDU"/>
    </contour>
    <contour>
      <point x="1148" y="640" type="move" name="abvmCANDRABINDU"/>
    </contour>
    <contour>
      <point x="1448" y="640" type="move" name="abvmCANDRABINDU2"/>
    </contour>
    <contour>
      <point x="1256" y="470" type="move" name="abvmTOP"/>
    </contour>
    <contour>
      <point x="1192" y="-24" type="move" name="blwmBOTTOM"/>
    </contour>
  </outline>
</glyph>
<glyph name="dvDdhYa" format="1">
  <advance width="1179"/>
  <outline>
    <component base="dvDdha"/>
    <component base="dvYa.post" xOffset="561"/>
    <contour>
      <point x="901" y="640" type="move" name="abvmBINDU"/>
    </contour>
    <contour>
      <point x="927" y="640" type="move" name="abvmCANDRABINDU"/>
    </contour>
    <contour>
      <point x="1226" y="640" type="move" name="abvmCANDRABINDU2"/>
    </contour>
    <contour>
      <point x="1034" y="470" type="move" name="abvmTOP"/>
    </contour>
    <contour>
      <point x="970" y="-24" type="move" name="blwmBOTTOM"/>
    </contour>
  </outline>
</glyph>
<glyph name="dvJh" format="1">
  <advance width="585"/>
  <outline>
    <contour>
      <point x="666" y="212" type="curve"/>
      <point x="625" y="308" type="line"/>
      <point x="571" y="258"/>
      <point x="475" y="266"/>
      <point x="383" y="306" type="curve"/>
      <point x="372" y="272" type="line"/>
      <point x="488" y="192"/>
      <point x="579" y="157"/>
    </contour>
    <contour>
      <point x="484" y="596" type="line"/>
      <point x="523" y="538" type="line"/>
      <point x="649" y="538" type="line"/>
      <point x="662" y="565" type="line"/>
      <point x="624" y="624" type="line"/>
      <point x="497" y="624" type="line"/>
    </contour>
    <component base="dvI"/>
  </outline>
</glyph>
<glyph name="dvKTYa" format="1">
  <advance width="1535"/>
  <outline>
    <component base="dvK"/>
    <component base="dvT" xOffset="584"/>
    <component base="dvYa" xOffset="925"/>
    <contour>
      <point x="1256" y="640" type="move" name="abvmBINDU"/>
    </contour>
    <contour>
      <point x="1283" y="640" type="move" name="abvmCANDRABINDU"/>
    </contour>
    <contour>
      <point x="1583" y="640" type="move" name="abvmCANDRABINDU2"/>
    </contour>
    <contour>
      <point x="1390" y="470" type="move" name="abvmTOP"/>
    </contour>
    <contour>
      <point x="1326" y="4" type="move" name="blwmBOTTOM"/>
    </contour>
  </outline>
</glyph>
<glyph name="dvMatraAi_dvReph" format="1">
  <advance width="0"/>
  <outline>
    <contour>
      <point x="-127" y="599" type="curve"/>
      <point x="-154" y="566" type="line"/>
      <point x="-80" y="587" type="line"/>
      <point x="-103" y="628"/>
      <point x="-116" y="667"/>
      <point x="-116" y="706" type="curve"/>
      <point x="-116" y="778"/>
      <point x="-73" y="827"/>
      <point x="-9" y="827" type="curve"/>
      <point x="22" y="827"/>
      <point x="50" y="816"/>
      <point x="77" y="795" type="curve"/>
      <point x="97" y="842" type="line"/>
      <point x="67" y="892"/>
      <point x="20" y="918"/>
      <point x="-28" y="918" type="curve"/>
      <point x="-96" y="918"/>
      <point x="-167" y="865"/>
      <point x="-167" y="770" type="curve"/>
      <point x="-167" y="713"/>
      <point x="-140" y="635"/>
    </contour>
    <component base="dvMatraAi"/>
    <contour>
      <point x="-148" y="470" type="move" name="_abvmTOP"/>
    </contour>
  </outline>
</glyph>
<glyph name="dvMatraAu_dvReph" format="1">
  <advance width="276"/>
  <outline>
    <component base="dvMatraAa"/>
    <component base="dvMatraAi_dvReph" xOffset="284"/>
    <contour>
      <point x="266" y="591" type="move" name="abvmBINDU"/>
    </contour>
  </outline>
</glyph>
<glyph name="dvMatraI.2" format="1">
  <advance width="276"/>
  <outline>
    <contour>
      <point x="97" y="611" type="curve"/>
      <point x="161" y="611" type="line"/>
      <point x="130" y="653"/>
      <point x="121" y="686"/>
      <point x="121" y="713" type="curve"/>
      <point x="121" y="781"/>
      <point x="177" y="828"/>
      <point x="258" y="828" type="curve"/>
      <point x="362" y="828"/>
      <point x="459" y="753"/>
      <point x="575" y="647" type="curve"/>
      <point x="617" y="687" type="line"/>
      <point x="459" y="854"/>
      <point x="340" y="926"/>
      <point x="219" y="926" type="curve"/>
      <point x="100" y="926"/>
      <point x="22" y="858"/>
      <point x="22" y="763" type="curve"/>
      <point x="22" y="712"/>
      <point x="44" y="659"/>
    </contour>
    <contour>
      <point x="85" y="10" type="line"/>
      <point x="162" y="-36" type="line"/>
      <point x="194" y="-24" type="line"/>
      <point x="194" y="497" type="line"/>
      <point x="120" y="555" type="line"/>
      <point x="85" y="571" type="line"/>
    </contour>
    <contour>
      <point x="-39" y="596" type="line"/>
      <point x="0" y="538" type="line"/>
      <point x="302" y="538" type="line"/>
      <point x="315" y="565" type="line"/>
      <point x="277" y="624" type="line"/>
      <point x="-26" y="624" type="line"/>
    </contour>
    <contour>
      <point x="617" y="687" type="move" name="abvmTOP"/>
    </contour>
  </outline>
</glyph>
<glyph name="dvMatraIi_dvReph.1" format="1">
  <advance width="276"/>
  <outline>
    <contour>
      <point x="141" y="592" type="curve"/>
      <point x="177" y="592" type="line"/>
      <point x="146" y="642"/>
      <point x="131" y="691"/>
      <point x="131" y="729" type="curve"/>
      <point x="131" y="797"/>
      <point x="175" y="840"/>
      <point x="232" y="840" type="curve"/>
      <point x="256" y="840"/>
      <point x="282" y="832"/>
      <point x="306" y="817" type="curve"/>
      <point x="325" y="864" type="line"/>
      <point x="293" y="906"/>
      <point x="249" y="927"/>
      <point x="205" y="927" type="curve"/>
      <point x="131" y="927"/>
      <point x="68" y="868"/>
      <point x="68" y="776" type="curve"/>
      <point x="68" y="719"/>
      <point x="92" y="644"/>
    </contour>
    <component base="dvMatraIi.1"/>
    <contour>
      <point x="246" y="606" type="move" name="abvmBINDU"/>
    </contour>
    <contour>
      <point x="182" y="470" type="move" name="abvmTOP"/>
    </contour>
  </outline>
</glyph>
<glyph name="dvMatraShortE_dvAnusvara" format="1">
  <advance width="0"/>
  <outline>
    <component base="dvMatraShortE"/>
    <component base="dvAnusvara" xOffset="-26" yOffset="-30"/>
    <contour>
      <point x="-146" y="470" type="move" name="_abvmTOP"/>
    </contour>
  </outline>
</glyph>
<glyph name="dvNCha" format="1">
  <advance width="1035"/>
  <outline>
    <contour>
      <point x="133" y="162" type="curve"/>
      <point x="187" y="185" type="line"/>
      <point x="187" y="341" type="line"/>
      <point x="120" y="385" type="line"/>
      <point x="48" y="385" type="line"/>
      <point x="8" y="335" type="line"/>
      <point x="30" y="272"/>
      <point x="88" y="198"/>
    </contour>
    <contour>
      <point x="84" y="385" type="line"/>
      <point x="115" y="290" type="line"/>
      <point x="383" y="290" type="line"/>
      <point x="398" y="313" type="line"/>
      <point x="365" y="385" type="line"/>
    </contour>
    <contour>
      <point x="-39" y="596" type="line"/>
      <point x="0" y="538" type="line"/>
      <point x="340" y="538" type="line"/>
      <point x="353" y="565" type="line"/>
      <point x="314" y="624" type="line"/>
      <point x="-26" y="624" type="line"/>
    </contour>
    <component base="dvCha" xOffset="282"/>
    <contour>
      <point x="669" y="640" type="move" name="abvmBINDU"/>
    </contour>
    <contour>
      <point x="692" y="640" type="move" name="abvmCANDRABINDU"/>
    </contour>
    <contour>
      <point x="1010" y="640" type="move" name="abvmCANDRABINDU2"/>
    </contour>
    <contour>
      <point x="830" y="470" type="move" name="abvmTOP"/>
    </contour>
    <contour>
      <point x="655" y="-46" type="move" name="blwmBOTTOM"/>
    </contour>
  </outline>
</glyph>
<glyph name="dvNJYa" format="1">
  <advance width="1381"/>
  <outline>
    <component base="dvN"/>
    <component base="dvJYa" xOffset="308"/>
    <contour>
      <point x="1102" y="640" type="move" name="abvmBINDU"/>
    </contour>
    <contour>
      <point x="1128" y="640" type="move" name="abvmCANDRABINDU"/>
    </contour>
    <contour>
      <point x="1428" y="640" type="move" name="abvmCANDRABINDU2"/>
    </contour>
    <contour>
      <point x="1236" y="470" type="move" name="abvmTOP"/>
    </contour>
    <contour>
      <point x="1172" y="4" type="move" name="blwmBOTTOM"/>
    </contour>
  </outline>
</glyph>
<glyph name="dvNSha" format="1">
  <advance width="1036"/>
  <outline>
    <contour>
      <point x="136" y="194" type="curve"/>
      <point x="190" y="217" type="line"/>
      <point x="190" y="378" type="line"/>
      <point x="123" y="422" type="line"/>
      <point x="51" y="422" type="line"/>
      <point x="11" y="372" type="line"/>
      <point x="32" y="307"/>
      <point x="85" y="233"/>
    </contour>
    <contour>
      <point x="84" y="422" type="line"/>
      <point x="115" y="326" type="line"/>
      <point x="448" y="326" type="line"/>
      <point x="463" y="352" type="line"/>
      <point x="427" y="422" type="line"/>
    </contour>
    <contour>
      <point x="-39" y="596" type="line"/>
      <point x="0" y="538" type="line"/>
      <point x="342" y="538" type="line"/>
      <point x="355" y="565" type="line"/>
      <point x="316" y="624" type="line"/>
      <point x="-26" y="624" type="line"/>
    </contour>
    <component base="dvSha" xOffset="265"/>
    <contour>
      <point x="755" y="640" type="move" name="abvmBINDU"/>
    </contour>
    <contour>
      <point x="743" y="640" type="move" name="abvmCANDRABINDU"/>
    </contour>
    <contour>
      <point x="1084" y="640" type="move" name="abvmCANDRABINDU2"/>
    </contour>
    <contour>
      <point x="891" y="470" type="move" name="abvmTOP"/>
    </contour>
    <contour>
      <point x="827" y="-55" type="move" name="blwmBOTTOM"/>
    </contour>
  </outline>
</glyph>
<glyph name="dvNTSa" format="1">
  <advance width="1313"/>
  <outline>
    <component base="dvN"/>
    <component base="dvT.alt1" xOffset="246"/>
    <component base="dvSa" xOffset="588"/>
    <contour>
      <point x="1001" y="640" type="move" name="abvmBINDU"/>
    </contour>
    <contour>
      <point x="1026" y="640" type="move" name="abvmCANDRABINDU"/>
    </contour>
    <contour>
      <point x="1360" y="640" type="move" name="abvmCANDRABINDU2"/>
    </contour>
    <contour>
      <point x="1168" y="470" type="move" name="abvmTOP"/>
    </contour>
    <contour>
      <point x="1104" y="4" type="move" name="blwmBOTTOM"/>
    </contour>
  </outline>
</glyph>
<glyph name="dvNThVa" format="1">
  <advance width="1260"/>
  <outline>
    <component base="dvN"/>
    <component base="dvTh" xOffset="286"/>
    <component base="dvVa" xOffset="670"/>
    <contour>
      <point x="1116" y="640" type="move" name="abvmBINDU"/>
    </contour>
    <contour>
      <point x="1100" y="640" type="move" name="abvmCANDRABINDU"/>
    </contour>
    <contour>
      <point x="1307" y="640" type="move" name="abvmCANDRABINDU2"/>
    </contour>
    <contour>
      <point x="1115" y="470" type="move" name="abvmTOP"/>
    </contour>
    <contour>
      <point x="1051" y="4" type="move" name="blwmBOTTOM"/>
    </contour>
  </outline>
</glyph>
<glyph name="dvNThYa" format="1">
  <advance width="1289"/>
  <outline>
    <component base="dvN"/>
    <component base="dvTh" xOffset="286"/>
    <component base="dvYa" xOffset="679"/>
    <contour>
      <point x="1010" y="640" type="move" name="abvmBINDU"/>
    </contour>
    <contour>
      <point x="1037" y="640" type="move" name="abvmCANDRABINDU"/>
    </contour>
    <contour>
      <point x="1337" y="640" type="move" name="abvmCANDRABINDU2"/>
    </contour>
    <contour>
      <point x="1144" y="470" type="move" name="abvmTOP"/>
    </contour>
    <contour>
      <point x="1080" y="4" type="move" name="blwmBOTTOM"/>
    </contour>
  </outline>
</glyph>
<glyph name="dvReph" format="1">
  <advance width="0"/>
  <outline>
    <contour>
      <point x="-164" y="588" type="curve"/>
      <point x="-125" y="607" type="line"/>
      <point x="-179" y="656"/>
      <point x="-206" y="707"/>
      <point x="-206" y="752" type="curve"/>
      <point x="-206" y="808"/>
      <point x="-164" y="839"/>
      <point x="-115" y="839" type="curve"/>
      <point x="-93" y="839"/>
      <point x="-70" y="832"/>
      <point x="-47" y="819" type="curve"/>
      <point x="-30" y="874" type="line"/>
      <point x="-58" y="900"/>
      <point x="-104" y="924"/>
      <point x="-157" y="924" type="curve"/>
      <point x="-243" y="924"/>
      <point x="-296" y="862"/>
      <point x="-296" y="791" type="curve"/>
      <point x="-296" y="719"/>
      <point x="-240" y="644"/>
    </contour>
    <contour>
      <point x="-163" y="470" type="move" name="_abvmTOP"/>
    </contour>
  </outline>
</glyph>
<glyph name="dvReph_dvAnusvara" format="1">
  <advance width="0"/>
  <outline>
    <contour>
      <point x="-164" y="594" type="curve"/>
      <point x="-125" y="612" type="line"/>
      <point x="-179" y="662"/>
      <point x="-206" y="712"/>
      <point x="-206" y="757" type="curve"/>
      <point x="-206" y="813"/>
      <point x="-164" y="844"/>
      <point x="-115" y="844" type="curve"/>
      <point x="-93" y="844"/>
      <point x="-70" y="838"/>
      <point x="-47" y="825" type="curve"/>
      <point x="-30" y="880" type="line"/>
      <point x="-58" y="906"/>
      <point x="-104" y="930"/>
      <point x="-157" y="930" type="curve"/>
      <point x="-243" y="930"/>
      <point x="-296" y="867"/>
      <point x="-296" y="797" type="curve"/>
      <point x="-296" y="724"/>
      <point x="-240" y="650"/>
    </contour>
    <contour>
      <point x="-91" y="673" type="curve"/>
      <point x="-69" y="688"/>
      <point x="-45" y="719"/>
      <point x="-35" y="745" type="curve"/>
      <point x="-49" y="763"/>
      <point x="-79" y="791"/>
      <point x="-105" y="801" type="curve"/>
      <point x="-128" y="788"/>
      <point x="-150" y="758"/>
      <point x="-164" y="729" type="curve"/>
      <point x="-149" y="708"/>
      <point x="-114" y="682"/>
    </contour>
    <contour>
      <point x="-163" y="470" type="move" name="_abvmTOP"/>
    </contour>
  </outline>
</glyph>
<glyph name="dvTSNYa" format="1">
  <advance width="1629"/>
  <outline>
    <component base="dvT.alt1"/>
    <component base="dvS" xOffset="335"/>
    <component base="dvN.alt" xOffset="738"/>
    <component base="dvYa" xOffset="1018"/>
    <contour>
      <point x="1350" y="640" type="move" name="abvmBINDU"/>
    </contour>
    <contour>
      <point x="1376" y="640" type="move" name="abvmCANDRABINDU"/>
    </contour>
    <contour>
      <point x="1676" y="640" type="move" name="abvmCANDRABINDU2"/>
    </contour>
    <contour>
      <point x="1484" y="470" type="move" name="abvmTOP"/>
    </contour>
    <contour>
      <point x="1420" y="4" type="move" name="blwmBOTTOM"/>
    </contour>
  </outline>
</glyph>
<glyph name="dvTthTthYa" format="1">
  <advance width="1142"/>
  <outline>
    <component base="dvTthTtha"/>
    <component base="dvYa.post" xOffset="524"/>
    <contour>
      <point x="856" y="640" type="move" name="abvmBINDU"/>
    </contour>
    <contour>
      <point x="882" y="640" type="move" name="abvmCANDRABINDU"/>
    </contour>
    <contour>
      <point x="1182" y="640" type="move" name="abvmCANDRABINDU2"/>
    </contour>
    <contour>
      <point x="990" y="470" type="move" name="abvmTOP"/>
    </contour>
    <contour>
      <point x="934" y="-21" type="move" name="blwmBOTTOM"/>
    </contour>
  </outline>
</glyph>
<glyph name="dvZZa" format="1">
  <advance width="949"/>
  <outline>
    <component base="dvJJa"/>
    <component base="dvNukta" xOffset="311" yOffset="78"/>
    <component base="dvNukta" xOffset="563" yOffset="78"/>
    <contour>
      <point x="805" y="640" type="move" name="abvmBINDU"/>
    </contour>
    <contour>
      <point x="789" y="640" type="move" name="abvmCANDRABINDU"/>
    </contour>
    <contour>
      <point x="997" y="640" type="move" name="abvmCANDRABINDU2"/>
    </contour>
    <contour>
      <point x="804" y="470" type="move" name="abvmTOP"/>
    </contour>
    <contour>
      <point x="725" y="-109" type="move" name="blwmBOTTOM"/>
    </contour>
  </outline>
</glyph>
<glyph name="grAcute.case" format="1">
  <advance width="340"/>
  <outline>
    <contour>
      <point x="9" y="434" type="line"/>
      <point x="53" y="414" type="line"/>
      <point x="163" y="603" type="line"/>
      <point x="162" y="626" type="line"/>
      <point x="140" y="645"/>
      <point x="105" y="661"/>
      <point x="70" y="659" type="curve"/>
    </contour>
    <contour>
      <point x="105" y="343" type="move" name="_left"/>
    </contour>
  </outline>
</glyph>
<glyph name="iotaadscript.case" format="1">
  <advance width="265"/>
  <outline>
    <contour>
      <point x="134" y="-224" type="curve"/>
      <point x="162" y="-224"/>
      <point x="195" y="-199"/>
      <point x="207" y="-169" type="curve"/>
      <point x="196" y="-142" type="line"/>
      <point x="104" y="-159" type="line"/>
      <point x="124" y="-183" type="line"/>
      <point x="170" y="-54" type="line"/>
      <point x="154" y="-37" type="line"/>
      <point x="117" y="-37"/>
      <point x="83" y="-41"/>
      <point x="63" y="-51" type="curve"/>
      <point x="69" y="-141" type="line" smooth="yes"/>
      <point x="73" y="-197"/>
      <point x="98" y="-224"/>
    </contour>
    <contour>
      <point x="114" y="0" type="move" name="_bottom"/>
    </contour>
  </outline>
</glyph>
<glyph name="lenis.case" format="1">
  <advance width="340"/>
  <outline>
    <contour>
      <point x="23" y="450" type="curve"/>
      <point x="48" y="414" type="line"/>
      <point x="119" y="448"/>
      <point x="160" y="513"/>
      <point x="160" y="571" type="curve"/>
      <point x="160" y="611"/>
      <point x="134" y="649"/>
      <point x="89" y="660" type="curve"/>
      <point x="53" y="643"/>
      <point x="34" y="615"/>
      <point x="28" y="577" type="curve"/>
      <point x="80" y="537" type="line"/>
      <point x="77" y="505"/>
      <point x="60" y="482"/>
    </contour>
    <contour>
      <point x="105" y="343" type="move" name="_left"/>
    </contour>
  </outline>
</glyph>
<glyph name="lenisgrave.case" format="1">
  <advance width="340"/>
  <outline>
    <contour>
      <point x="34" y="603" type="line"/>
      <point x="144" y="414" type="line"/>
      <point x="187" y="434" type="line"/>
      <point x="127" y="659" type="line"/>
      <point x="92" y="661"/>
      <point x="56" y="645"/>
      <point x="35" y="626" type="curve"/>
    </contour>
    <contour>
      <point x="-133" y="450" type="curve"/>
      <point x="-108" y="414" type="line"/>
      <point x="-37" y="448"/>
      <point x="5" y="513"/>
      <point x="5" y="571" type="curve"/>
      <point x="5" y="611"/>
      <point x="-22" y="649"/>
      <point x="-67" y="660" type="curve"/>
      <point x="-103" y="643"/>
      <point x="-121" y="615"/>
      <point x="-128" y="577" type="curve"/>
      <point x="-76" y="537" type="line"/>
      <point x="-79" y="505"/>
      <point x="-96" y="482"/>
    </contour>
    <contour>
      <point x="130" y="343" type="move" name="_left"/>
    </contour>
  </outline>
</glyph>
<glyph name="lenistilde.case" format="1">
  <advance width="340"/>
  <outline>
    <contour>
      <point x="125" y="529" type="curve"/>
      <point x="176" y="529"/>
      <point x="203" y="566"/>
      <point x="216" y="648" type="curve"/>
      <point x="180" y="661" type="line"/>
      <point x="153" y="614" type="line"/>
      <point x="108" y="597"/>
      <point x="13" y="673"/>
      <point x="-59" y="673" type="curve"/>
      <point x="-108" y="673"/>
      <point x="-136" y="636"/>
      <point x="-148" y="555" type="curve"/>
      <point x="-113" y="540" type="line"/>
      <point x="-88" y="584" type="line"/>
      <point x="-41" y="607"/>
      <point x="54" y="529"/>
    </contour>
    <contour>
      <point x="-41" y="308" type="curve"/>
      <point x="-16" y="273" type="line"/>
      <point x="55" y="307"/>
      <point x="96" y="372"/>
      <point x="96" y="429" type="curve"/>
      <point x="96" y="469"/>
      <point x="70" y="508"/>
      <point x="25" y="518" type="curve"/>
      <point x="-11" y="502"/>
      <point x="-30" y="474"/>
      <point x="-36" y="435" type="curve"/>
      <point x="16" y="396" type="line"/>
      <point x="13" y="363"/>
      <point x="-4" y="341"/>
    </contour>
    <contour>
      <point x="123" y="343" type="move" name="_left"/>
    </contour>
  </outline>
</glyph>
<glyph name="tonos.case" format="1">
  <advance width="340"/>
  <outline>
    <component base="tonos" xOffset="-93" yOffset="-115"/>
    <contour>
      <point x="105" y="343" type="move" name="_left"/>
    </contour>
  </outline>
</glyph>
